HIERARCHY
ROOT Hips
{
  OFFSET 267.745 86.9975 -272.335
  CHANNELS 6 Xposition Yposition Zposition Zrotation Xrotation Yrotation
  JOINT LeftUpLeg
  {
    OFFSET 8.64259 1.95398 -2.38835
    CHANNELS 3 Zrotation Xrotation Yrotation
    JOINT LeftLeg
    {
      OFFSET 43.7702 0 0
      CHANNELS 3 Zrotation Xrotation Yrotation
      JOINT LeftFoot
      {
        OFFSET 40.6238 0 0
        CHANNELS 3 Zrotation Xrotation Yrotation
        JOINT LeftToeBase
        {
          OFFSET 12.7242 0 0
          CHANNELS 3 Zrotation Xrotation Yrotation
          End Site
          {
            OFFSET 0 0 0
          }
        }
      }
    }
  }
  JOINT RightUpLeg
  {
    OFFSET -8.2249 1.95398 -2.59336
    CHANNELS 3 Zrotation Xrotation Yrotation
    JOINT RightLeg
    {
      OFFSET 43.5653 0 0
      CHANNELS 3 Zrotation Xrotation Yrotation
      JOINT RightFoot
      {
        OFFSET 40.6238 0 0
        CHANNELS 3 Zrotation Xrotation Yrotation
        JOINT RightToeBase
        {
          OFFSET 12.7242 0 0
          CHANNELS 3 Zrotation Xrotation Yrotation
          End Site
          {
            OFFSET 0 0 0
          }
        }
      }
    }
  }
  JOINT Spine
  {
    OFFSET 0.165834 0.87714 6.61349
    CHANNELS 3 Zrotation Xrotation Yrotation
    JOINT Spine1
    {
      OFFSET 7.38963 1.71661e-005 0
      CHANNELS 3 Zrotation Xrotation Yrotation
      JOINT Spine2
      {
        OFFSET 11.9445 1.14441e-005 0
        CHANNELS 3 Zrotation Xrotation Yrotation
        JOINT Spine3
        {
          OFFSET 14.7254 4.19617e-005 0
          CHANNELS 3 Zrotation Xrotation Yrotation
          JOINT Spine4
          {
            OFFSET 10.9679 0 0
            CHANNELS 3 Zrotation Xrotation Yrotation
            JOINT RightShoulder
            {
              OFFSET 2.46616 -1.6653 3.69651
              CHANNELS 3 Zrotation Xrotation Yrotation
              JOINT RightArm
              {
                OFFSET 13.0012 0 0
                CHANNELS 3 Zrotation Xrotation Yrotation
                JOINT RightForeArm
                {
                  OFFSET 28.7848 1.52588e-005 0
                  CHANNELS 3 Zrotation Xrotation Yrotation
                  JOINT RightHand
                  {
                    OFFSET 26.5688 1.52588e-005 0
                    CHANNELS 3 Zrotation Xrotation Yrotation
                    End Site
                    {
                      OFFSET 0 0 0
                    }
                  }
                }
              }
            }
            JOINT LeftShoulder
            {
              OFFSET 2.38034 -1.29275 -3.7523
              CHANNELS 3 Zrotation Xrotation Yrotation
              JOINT LeftArm
              {
                OFFSET 16.3182 6.10352e-005 0
                CHANNELS 3 Zrotation Xrotation Yrotation
                JOINT LeftForeArm
                {
                  OFFSET 27.0901 0 0
                  CHANNELS 3 Zrotation Xrotation Yrotation
                  JOINT LeftHand
                  {
                    OFFSET 24.5451 1.52588e-005 0
                    CHANNELS 3 Zrotation Xrotation Yrotation
                    End Site
                    {
                      OFFSET 0 0 0
                    }
                  }
                }
              }
            }
            JOINT Neck
            {
              OFFSET 5.0226 -0.0266342 0
              CHANNELS 3 Zrotation Xrotation Yrotation
              JOINT Head
              {
                OFFSET 6.69364 2.86102e-005 0
                CHANNELS 3 Zrotation Xrotation Yrotation
                End Site
                {
                  OFFSET 0 0 0
                }
              }
            }
          }
        }
      }
    }
  }
}
MOTION
Frames:	9
Frame Time:	0.0416667
-303.065 44.3853 -269.568 93.275 -44.9437 98.678 -119.43 -54.0786 100.727 -145.319 -14.6705 48.6707 -87.2347 -43.1858 -16.4592 -37.3568 -32.0849 49.426 161.014 40.3947 111.884 -35.342 82.3804 -97.5798 -6.00155 13.7092 93.1021 92.2388 -84.8938 -94.1199 1.15521 5.34857 -90.868 16.1926 1.83942 -2.05452 4.52118 1.74727 -2.13347 -18.0174 2.37179 -1.40672 1.99526 2.3718 -1.40672 134.991 -35.3847 -23.6585 49.2322 -43.6867 62.7152 -61.006 48.1405 -108.715 4.15181 -2.15096 -53.0531 -49.6343 -43.2806 141.916 98.4082 52.697 -128.999 -79.7574 -0.00230118 -7.62037 96.2104 -50.1104 -48.1394 78.0018 7.28932 -1.76323 13.7582 13.2903 42.0712 
-303.732 44.5812 -270.105 93.0517 -44.8834 98.7678 -122.819 -52.1547 99.5061 -141.59 -13.7986 48.3653 -83.9007 -45.6075 -8.87369 -35.7994 -32.9092 51.381 160.304 41.5327 112.697 -31.6387 82.3985 -101.092 -5.59671 12.7451 92.5371 86.841 -83.9385 -99.0312 1.14368 5.36965 -90.8837 16.1501 1.80929 -2.08005 4.47866 1.71598 -2.15764 -18.0593 2.3507 -1.44015 1.95339 2.35068 -1.44016 135.298 -35.7949 -23.4727 47.703 -43.2393 62.264 -61.843 48.745 -108.659 4.27085 -2.28828 -54.6499 -49.3474 -43.6311 142.167 98.3294 51.6913 -128.714 -80.1169 0.660257 -8.28373 97.0791 -49.8653 -47.3154 78.2939 7.28372 -1.71092 14.9029 13.637 41.9122 
-305.583 45.2676 -271.551 92.4027 -44.7055 99.0249 -131.317 -47.7135 97.7821 -132.476 -10.7186 45.9806 -72.0029 -50.39 12.5042 -30.8385 -34.877 57.2374 158.227 44.4105 114.992 -28.4977 82.5776 -103.412 -4.42155 10.81 91.3617 82.8946 -82.0697 -101.776 1.1108 5.4282 -90.9302 16.0322 1.72229 -2.15607 4.36048 1.62575 -2.22975 -18.1755 2.29056 -1.53886 1.8371 2.29058 -1.53885 136.175 -36.9566 -22.9429 43.2345 -41.9023 60.9472 -64.2153 50.4919 -108.452 4.15963 -2.48704 -59.2931 -48.521 -44.6397 142.879 98.0988 48.9005 -127.852 -81.0374 2.63048 -10.0964 99.5217 -49.0948 -44.983 79.1088 7.26513 -1.55614 18.2887 14.6341 41.4503 
-308.33 46.5771 -273.613 91.3534 -44.4089 99.4297 -140.966 -44.1546 98.5836 -121.707 -5.06055 40.1891 -53.9027 -52.0848 39.6865 -21.7193 -36.6428 67.0805 155.063 47.8264 118.315 -30.6799 83.0335 -99.2543 -2.36406 7.90603 91.1361 93.1149 -81.9125 -90.4401 1.05921 5.51435 -91.0073 15.8584 1.5837 -2.28438 4.18632 1.48166 -2.35184 -18.3466 2.19693 -1.70296 1.66604 2.19694 -1.70296 137.547 -38.7366 -22.1187 35.9411 -39.6249 58.8121 -67.1983 53.1484 -108.498 2.68939 -2.04105 -66.5523 -47.2094 -46.2333 143.976 97.779 44.7529 -126.425 -82.1752 5.87755 -12.7354 103.168 -47.7046 -41.4615 80.336 7.25584 -1.30079 23.9568 16.1954 40.7219 
-311.805 48.3423 -276.195 89.9223 -43.9888 99.9601 -147.569 -44.0863 102.632 -110.365 2.73682 33.0865 -40.1567 -49.9407 59.5504 -8.19006 -36.1038 80.3685 151.42 50.7894 121.916 -37.9186 83.6298 -88.801 1.61199 3.46719 95.4681 173.53 -79.0562 -9.69823 0.991781 5.61598 -91.116 15.653 1.39859 -2.46873 3.9804 1.28864 -2.52785 -18.5481 2.07575 -1.93451 1.4645 2.07575 -1.93451 139.329 -40.9781 -21.0527 25.9147 -36.2943 55.9455 -68.1581 56.1723 -110.553 -0.933559 0.193582 -75.3741 -45.4673 -48.3317 145.379 97.5196 39.7087 -124.513 -83.1236 10.2787 -15.9337 107.509 -45.6095 -37.1997 81.8967 7.46556 -0.977024 31.9526 18.0925 39.9161 
-316.143 50.1235 -279.59 88.1265 -43.4402 100.592 -148.843 -47.1733 109.497 -97.3459 11.4338 26.9067 -33.9191 -46.7237 68.731 8.06327 -30.9636 94.564 147.889 52.9498 125.165 -64.8841 83.372 -57.6211 13.3071 -0.784129 110.713 -166.409 2.10813 24.7812 0.911516 5.72068 -91.2569 15.4406 1.17202 -2.71204 3.76722 1.05156 -2.76095 -18.7556 1.93273 -2.23477 1.25708 1.93273 -2.23478 141.433 -43.5231 -19.7938 13.3708 -31.7697 52.579 -63.7579 58.6579 -117.145 -6.32045 4.86009 -84.1445 -43.3406 -50.849 147.023 97.5241 34.1844 -122.242 -83.4815 15.5864 -19.5952 112.006 -42.7925 -32.678 83.8121 8.83859 -0.744953 41.8541 19.7314 40.0163 
-321.46 51.6216 -284.339 85.9884 -42.7623 101.3 -144.19 -51.5091 119.187 -82.5523 20.8016 22.0578 -33.8994 -44.2723 68.0053 24.2888 -20.1558 106.07 143.721 53.9229 129.161 -94.6429 78.1588 -22.3772 57.5469 17.0225 133.068 102.431 41.9262 77.2672 0.820772 5.81713 -91.4292 15.2433 0.909455 -3.01454 3.56912 0.77596 -3.05161 -18.9464 1.77312 -2.60231 1.06622 1.77314 -2.60231 143.775 -46.2222 -18.3877 -1.21557 -25.9709 49.1598 -53.0954 59.2448 -128.781 -12.5502 11.252 -92.3671 -40.8656 -53.6921 148.865 97.9969 28.5363 -119.73 -82.8671 21.4518 -23.8082 116.199 -39.3313 -28.2986 86.1842 9.27933 -0.36354 53.4583 22.4265 39.6159 
-327.618 52.6623 -290.738 83.544 -41.9623 102.057 -133.877 -55.3051 131.978 -65.2208 29.1039 17.68 -37.8549 -41.0009 58.948 39.9981 -3.85034 112.69 137.9 52.8737 135.706 -100.687 65.8399 -7.36251 151.037 22.4768 97.4888 125.94 -25.995 2.42892 0.722661 5.89602 -91.6307 15.0798 0.617565 -3.37271 3.40455 0.468615 -3.39659 -19.1021 1.6022 -3.03174 0.910552 1.60221 -3.03174 146.266 -48.9403 -16.8799 -17.047 -19.0604 46.3096 -39.9905 56.9684 -141.602 -19.1741 19.6977 -98.7369 -38.0663 -56.7646 150.89 99.0976 23.0634 -117.061 -80.9212 27.448 -28.7942 119.78 -35.3935 -24.3249 90.7057 -12.6175 1.46677 78.7279 30.0935 15.1009 
-334.7 53.8969 -297.638 80.8445 -41.0572 102.838 -118.992 -57.9832 148.528 -43.1461 37.5543 12.3875 -45.9808 -35.6712 40.5727 58.5073 17.3492 110.31 132.641 52.596 141.297 -92.4016 47.8885 -1.71512 -171.835 -17.9518 96.0091 86.0169 -51.1878 -65.1261 0.619896 5.95102 -91.8566 14.9621 0.304101 -3.7785 3.28564 0.137622 -3.78822 -19.2104 1.42496 -3.51304 0.802288 1.42494 -3.51306 148.822 -51.57 -15.3154 -33.1544 -11.5763 44.5807 -29.2585 52.5848 -151.003 -26.5511 29.0303 -101.845 -34.9411 -59.973 153.118 100.903 18.0046 -114.271 -77.3438 33.1006 -34.8132 122.605 -31.2003 -20.8748 -103.81 5.20681 179.209 79.5733 -28.8884 -156.104 
